<svg width="500" height="500" viewBox="0 0 500 500" fill="none" xmlns="http://www.w3.org/2000/svg">
<path fill-rule="evenodd" clip-rule="evenodd" d="M150.062 20.7753C152.1 19.8851 154.476 20.4898 155.873 22.2211L193.105 68.3578C194.383 69.9414 196.492 70.5864 198.45 70.0335C200.927 69.3343 203.425 68.6846 205.942 68.0857C207.949 67.6084 209.488 65.982 209.807 63.9443L218.952 5.57119C219.298 3.362 221.068 1.64602 223.292 1.40987C232.067 0.477934 240.978 0 250 0C259.735 0 269.339 0.55638 278.784 1.63907C280.99 1.89201 282.74 3.60161 283.083 5.79575L292.313 64.7139C292.628 66.7209 294.127 68.3319 296.095 68.8352C298.386 69.4211 300.66 70.0492 302.916 70.7186C304.891 71.3043 307.033 70.6649 308.327 69.0621L345.603 22.8712C347.007 21.1305 349.4 20.5298 351.443 21.4383C368.563 29.0479 384.669 38.5245 399.503 49.6096C401.277 50.9347 401.93 53.2822 401.133 55.3475L379.589 111.191C378.859 113.082 379.348 115.223 380.796 116.643C382.308 118.127 383.795 119.636 385.257 121.17C386.674 122.657 388.844 123.17 390.761 122.43L446.246 101.024C448.33 100.22 450.698 100.893 452.016 102.696C462.982 117.71 472.315 133.992 479.753 151.281C480.629 153.316 480.021 155.678 478.297 157.069L431.783 194.606C430.203 195.881 429.557 197.982 430.103 199.937C430.629 201.818 431.125 203.71 431.593 205.614C432.082 207.603 433.702 209.125 435.726 209.442L494.395 218.633C496.602 218.979 498.317 220.746 498.555 222.967C499.51 231.847 500 240.866 500 250C500 259.846 499.431 269.56 498.323 279.109C498.068 281.313 496.359 283.059 494.167 283.402L435.467 292.598C433.453 292.914 431.839 294.422 431.341 296.399C430.881 298.229 430.394 300.048 429.88 301.856C429.323 303.816 429.967 305.929 431.553 307.209L477.654 344.413C479.387 345.811 479.991 348.19 479.097 350.229C471.502 367.567 461.996 383.876 450.846 398.892C449.523 400.674 447.169 401.332 445.099 400.534L390.061 379.3C388.154 378.564 385.995 379.068 384.576 380.541C383.246 381.923 381.895 383.284 380.523 384.624C379.07 386.044 378.578 388.188 379.309 390.083L400.533 445.099C401.332 447.169 400.674 449.523 398.892 450.846C383.876 461.996 367.566 471.502 350.229 479.097C348.19 479.991 345.811 479.387 344.412 477.654L307.675 432.13C306.385 430.533 304.252 429.892 302.282 430.468C300.286 431.053 298.276 431.605 296.254 432.124C294.288 432.629 292.791 434.239 292.477 436.244L283.402 494.167C283.059 496.359 281.313 498.068 279.109 498.323C269.56 499.431 259.846 500 250 500C240.866 500 231.847 499.51 222.967 498.555C220.746 498.317 218.979 496.602 218.633 494.395L209.644 437.017C209.325 434.981 207.788 433.355 205.784 432.877C203.537 432.34 201.305 431.763 199.091 431.146C197.137 430.602 195.037 431.248 193.763 432.827L157.069 478.297C155.678 480.021 153.316 480.629 151.281 479.753C133.992 472.315 117.71 462.982 102.696 452.016C100.893 450.698 100.22 448.33 101.024 446.246L121.88 392.188C122.621 390.265 122.103 388.089 120.607 386.673C118.775 384.939 116.979 383.168 115.218 381.361C113.799 379.905 111.652 379.411 109.755 380.143L55.3476 401.133C53.2823 401.93 50.9347 401.277 49.6096 399.503C38.5246 384.669 29.048 368.563 21.4383 351.443C20.5298 349.4 21.1305 347.007 22.8712 345.603L68.0159 309.171C69.6175 307.878 70.2573 305.738 69.6736 303.765C68.9074 301.174 68.1956 298.559 67.5396 295.923C67.0462 293.94 65.4292 292.425 63.4103 292.109L5.79576 283.083C3.60161 282.74 1.89202 280.99 1.63908 278.784C0.556382 269.339 0 259.735 0 250C0 240.978 0.477932 232.067 1.40986 223.292C1.64601 221.068 3.362 219.298 5.57119 218.952L63.1548 209.931C65.1839 209.613 66.806 208.085 67.2907 206.089C67.9496 203.377 68.6674 200.687 69.4428 198.022C70.0155 196.054 69.3738 193.925 67.7786 192.638L22.221 155.873C20.4898 154.476 19.8851 152.101 20.7752 150.062C28.2283 132.991 37.5324 116.913 48.4339 102.083C49.7535 100.288 52.1162 99.6206 54.1949 100.423L109.049 121.585C110.955 122.321 113.113 121.818 114.531 120.347C116.423 118.386 118.357 116.466 120.332 114.588C121.823 113.171 122.337 110.999 121.597 109.08L100.423 54.1949C99.6206 52.1163 100.288 49.7536 102.083 48.434C116.913 37.5325 132.991 28.2283 150.062 20.7753ZM250.5 387C326.439 387 388 325.439 388 249.5C388 173.561 326.439 112 250.5 112C174.561 112 113 173.561 113 249.5C113 325.439 174.561 387 250.5 387Z" fill="#1D776A"/>
</svg>
